<svg width="11" height="13" viewBox="0 0 11 13" fill="none" xmlns="http://www.w3.org/2000/svg">
<path d="M1.28133 11.2689H8.41028L8.06923 10.1636L8.88397 10.8631L9.63081 11.531L10.9903 12.6678V1.9089C10.9679 1.57323 10.8187 1.25862 10.573 1.02879C10.3274 0.798949 10.0035 0.671056 9.66712 0.671003H1.28291C0.948293 0.666715 0.625387 0.794073 0.383788 1.02563C0.14219 1.25719 0.00124552 1.5744 -0.00866699 1.9089V10.031C-0.00706802 10.1975 0.0277781 10.3621 0.0938263 10.5149C0.159875 10.6678 0.255795 10.806 0.375957 10.9213C0.496119 11.0366 0.638102 11.1267 0.793575 11.1864C0.949048 11.2461 1.11488 11.2742 1.28133 11.2689ZM6.55502 3.51311H6.53765H6.55502ZM2.7387 4.14469C3.24805 3.7563 3.86541 3.53562 4.50554 3.51311L4.57344 3.581C3.45239 3.84785 2.94397 4.34995 2.94397 4.34995C2.94397 4.34995 3.07975 4.28363 3.3166 4.181C4.06758 3.88033 4.8739 3.74271 5.6821 3.77729C6.4903 3.81186 7.28193 4.01782 8.00449 4.38153C8.00449 4.38153 7.49449 3.90785 6.44291 3.61258L6.53607 3.521C7.16607 3.54851 7.7724 3.76899 8.27291 4.15258C8.85479 5.2327 9.17089 6.43594 9.19502 7.66258C9.1666 7.61837 8.62502 8.49469 7.22765 8.52469C7.22765 8.52469 6.99239 8.25627 6.82344 8.02416C7.63976 7.79048 7.94449 7.32153 7.94449 7.32153C7.71437 7.4572 7.47719 7.58053 7.23397 7.691C6.93945 7.81027 6.63371 7.89967 6.32133 7.95785C4.87818 8.19153 4.06976 7.79995 3.30397 7.48416L3.04344 7.34995C3.04344 7.34995 3.3466 7.82363 4.12975 8.05258C3.92765 8.29416 3.72396 8.56574 3.72396 8.56574C2.33133 8.53258 1.82923 7.66258 1.82923 7.66258C1.84882 6.43438 2.16058 5.22849 2.7387 4.14469Z" fill="white"/>
<path d="M6.64489 7.05626C6.81667 7.04791 6.97864 6.97379 7.09726 6.84927C7.21588 6.72474 7.28204 6.55936 7.28204 6.38738C7.28204 6.2154 7.21588 6.05002 7.09726 5.92549C6.97864 5.80097 6.81667 5.72686 6.64489 5.71851C6.4677 5.71851 6.29777 5.78889 6.17248 5.91418C6.04719 6.03947 5.97681 6.2094 5.97681 6.38659C5.97681 6.56378 6.04719 6.73371 6.17248 6.859C6.29777 6.98429 6.4677 7.05468 6.64489 7.05468V7.05626Z" fill="white"/>
<path d="M4.33544 7.05626C4.50722 7.04791 4.6692 6.97379 4.78782 6.84927C4.90643 6.72474 4.9726 6.55936 4.9726 6.38738C4.9726 6.2154 4.90643 6.05002 4.78782 5.92549C4.6692 5.80097 4.50722 5.72686 4.33544 5.71851C4.15826 5.71851 3.98833 5.78889 3.86304 5.91418C3.73775 6.03947 3.66736 6.2094 3.66736 6.38659C3.66736 6.56378 3.73775 6.73371 3.86304 6.859C3.98833 6.98429 4.15826 7.05468 4.33544 7.05468V7.05626Z" fill="white"/>
</svg>
