<svg width="17" height="12" viewBox="0 0 17 12" fill="none" xmlns="http://www.w3.org/2000/svg">
<path fill-rule="evenodd" clip-rule="evenodd" d="M7.17382 7.00685C4.99769 5.56235 2.82155 4.11159 0.651675 2.65458C0.0888814 2.27939 -0.123729 1.65406 0.0701217 1.0475C0.270226 0.415916 0.820513 0.0032015 1.50837 0.0032015C3.59071 -0.00305176 5.67304 -0.00305176 7.75538 -0.00305176H8.00551C10.1629 -0.00305176 12.3203 -0.00305176 14.4839 0.0032015C15.3843 0.0032015 16.0534 0.6723 16.0159 1.53525C15.9972 2.05427 15.7283 2.42947 15.3031 2.71086C13.4458 3.94275 11.5886 5.1809 9.73766 6.41904C9.65145 6.47651 9.56628 6.53398 9.48155 6.59116C9.27125 6.73305 9.06365 6.87313 8.8497 7.00685C8.29316 7.36329 7.72411 7.36954 7.17382 7.00685ZM16.0066 3.50489C16.0116 3.56264 16.0161 3.61502 16.0161 3.66741C16.0161 5.91858 16.0161 8.16976 16.0098 10.4272C16.0098 11.3777 15.397 12.003 14.4527 12.003H1.57729C0.626794 12.003 0.0077219 11.3839 0.0077219 10.4397V3.68617C0.0077219 3.61436 0.0113869 3.54622 0.015911 3.4621C0.0172965 3.43634 0.0187624 3.40908 0.0202284 3.37976C0.145294 3.4548 0.239092 3.51108 0.332891 3.57361L6.3923 7.60696C7.60543 8.41363 8.43086 8.41363 9.65024 7.60071C10.1521 7.26559 10.6544 6.93008 11.157 6.59437C12.6707 5.58329 14.1871 4.57043 15.7034 3.56111C15.7479 3.5325 15.7924 3.50551 15.841 3.47603C15.888 3.44751 15.9389 3.41666 15.9973 3.37976C15.9998 3.42496 16.0033 3.46613 16.0066 3.50489Z" fill="#D646D0"/>
</svg>
