<svg width="22" height="22" viewBox="0 0 22 22" fill="none" xmlns="http://www.w3.org/2000/svg">
<path d="M4.3419 12.2359C5.42719 13.4976 7.04735 14.8289 8.95237 16.3931L8.95487 16.3951L8.95698 16.3968C9.57538 16.9046 10.2719 17.4765 10.9987 18.0868C11.7295 17.4753 12.4271 16.9024 13.047 16.3937C14.9524 14.8291 16.5728 13.4978 17.6582 12.2359C18.773 10.9399 19.2475 9.81577 19.2475 8.57362C19.2475 7.38137 18.8318 6.30085 18.0884 5.52392C17.3569 4.75953 16.3498 4.3364 15.2475 4.3364C14.4463 4.3364 13.713 4.58069 13.062 5.06564C12.4781 5.50083 12.0671 6.05496 11.8239 6.44745C11.6471 6.73291 11.3368 6.90043 11 6.90043C10.6632 6.90043 10.3529 6.73292 10.1761 6.44746C9.93316 6.05503 9.52206 5.50085 8.93801 5.06567C8.28701 4.5807 7.55368 4.3364 6.75264 4.3364C5.65017 4.3364 4.64327 4.75951 3.91165 5.52392L5.5 3.5L8.5 4L11 6L14.0956 3.80541L18.0884 4.44189L20 8.5L18.5 12.5L11 19L6 15L4.3419 12.2359ZM4.3419 12.2359C3.22702 10.9399 2.75249 9.81577 2.75249 8.57362C2.75249 7.38138 3.16823 6.30085 3.91165 5.52392L5.5 3.5L8.5 4L11 6L14.0956 3.80541L18.0884 4.44189L20 8.5L18.5 12.5L11 19L6 15L4.3419 12.2359ZM7.90638 17.6084L7.90831 17.61C8.56985 18.1531 9.31838 18.7677 10.0946 19.4217C10.3465 19.6342 10.668 19.75 11 19.75C11.3317 19.75 11.6534 19.6342 11.9051 19.4221C12.6831 18.7666 13.4329 18.1509 14.0956 17.6069L14.1111 17.5942C16.0379 16.0122 17.7261 14.6261 18.9054 13.255C20.236 11.7082 20.875 10.2168 20.875 8.57362C20.875 6.99028 20.3112 5.52098 19.2787 4.4419C18.2334 3.34964 16.7999 2.75 15.2475 2.75C14.0822 2.75 13.0122 3.10601 12.0736 3.80541C11.6831 4.09636 11.3242 4.4402 11 4.83219C10.6759 4.44018 10.3169 4.09635 9.92659 3.80543C8.98794 3.10602 7.91796 2.75 6.75264 2.75C5.20011 2.75 3.76678 3.34964 2.72149 4.44189C1.68894 5.52096 1.125 6.99027 1.125 8.57362C1.125 10.2168 1.76412 11.7083 3.09473 13.2552C4.27437 14.6264 5.96327 16.013 7.89106 17.5958L7.903 17.6056L7.90493 17.6072L7.90638 17.6084Z" fill="white"/>
<path d="M4.3419 12.2359C5.42719 13.4976 7.04735 14.8289 8.95237 16.3931L8.95487 16.3951L8.95698 16.3968C9.57538 16.9046 10.2719 17.4765 10.9987 18.0868C11.7295 17.4753 12.4271 16.9024 13.047 16.3937C14.9524 14.8291 16.5728 13.4978 17.6582 12.2359C18.773 10.9399 19.2475 9.81577 19.2475 8.57362C19.2475 7.38137 18.8318 6.30085 18.0884 5.52392C17.3569 4.75953 16.3498 4.3364 15.2475 4.3364C14.4463 4.3364 13.713 4.58069 13.062 5.06564C12.4781 5.50083 12.0671 6.05496 11.8239 6.44745M4.3419 12.2359C3.22702 10.9399 2.75249 9.81577 2.75249 8.57362C2.75249 7.38138 3.16823 6.30085 3.91165 5.52392M4.3419 12.2359L6 15L11 19L18.5 12.5L20 8.5L18.0884 4.44189L14.0956 3.80541L11 6L8.5 4L5.5 3.5L3.91165 5.52392M11.8239 6.44745L11.6114 6.31579M11.8239 6.44745C11.6471 6.73291 11.3368 6.90043 11 6.90043C10.6632 6.90043 10.3529 6.73292 10.1761 6.44746C9.93316 6.05503 9.52206 5.50085 8.93801 5.06567C8.28701 4.5807 7.55368 4.3364 6.75264 4.3364C5.65017 4.3364 4.64327 4.75951 3.91165 5.52392M19.2787 4.4419C20.3112 5.52098 20.875 6.99028 20.875 8.57362C20.875 10.2168 20.236 11.7082 18.9054 13.255C17.7261 14.6261 16.0379 16.0122 14.1111 17.5942L14.0956 17.6069C13.4329 18.1509 12.6831 18.7666 11.9051 19.4221C11.6534 19.6342 11.3317 19.75 11 19.75C10.668 19.75 10.3465 19.6342 10.0946 19.4217C9.31838 18.7677 8.56985 18.1531 7.90831 17.61L7.90638 17.6084L7.90493 17.6072L7.903 17.6056L7.89106 17.5958C5.96327 16.013 4.27437 14.6264 3.09473 13.2552C1.76412 11.7083 1.125 10.2168 1.125 8.57362C1.125 6.99027 1.68894 5.52096 2.72149 4.44189C3.76678 3.34964 5.20011 2.75 6.75264 2.75C7.91796 2.75 8.98794 3.10602 9.92659 3.80543C10.3169 4.09635 10.6759 4.44018 11 4.83219C11.3242 4.4402 11.6831 4.09636 12.0736 3.80541C13.0122 3.10601 14.0822 2.75 15.2475 2.75C16.7999 2.75 18.2334 3.34964 19.2787 4.4419ZM19.2787 4.4419L19.098 4.61474" stroke="white" stroke-width="0.5"/>
</svg>
