<svg width="13" height="14" viewBox="0 0 13 14" fill="none" xmlns="http://www.w3.org/2000/svg">
<path d="M9.1745 0.684082H3.49029C2.56901 0.684082 1.68546 1.05006 1.03402 1.7015C0.382578 2.35294 0.0166016 3.23649 0.0166016 4.15777V9.84198C0.0166016 10.7633 0.382578 11.6468 1.03402 12.2982C1.68546 12.9497 2.56901 13.3157 3.49029 13.3157H9.1745C10.0958 13.3157 10.9793 12.9497 11.6308 12.2982C12.2822 11.6468 12.6482 10.7633 12.6482 9.84198V4.15777C12.6482 3.23649 12.2822 2.35294 11.6308 1.7015C10.9793 1.05006 10.0958 0.684082 9.1745 0.684082ZM11.5429 9.34303C11.5429 10.1035 11.2408 10.8328 10.7031 11.3706C10.1653 11.9083 9.43602 12.2104 8.67555 12.2104H3.98923C3.22876 12.2104 2.49943 11.9083 1.9617 11.3706C1.42396 10.8328 1.12186 10.1035 1.12186 9.34303V4.65671C1.12186 3.89624 1.42396 3.16691 1.9617 2.62918C2.49943 2.09144 3.22876 1.78935 3.98923 1.78935H8.67555C9.43602 1.78935 10.1653 2.09144 10.7031 2.62918C11.2408 3.16691 11.5429 3.89624 11.5429 4.65671V9.34303Z" fill="white"/>
<path d="M8.63629 4.72001L8.60629 4.69001L8.58103 4.66475C7.98402 4.06981 7.17544 3.73593 6.33261 3.73633C5.90699 3.73922 5.48611 3.82595 5.09402 3.99155C4.70192 4.15715 4.3463 4.39838 4.04747 4.70147C3.74864 5.00455 3.51245 5.36355 3.35241 5.75794C3.19236 6.15233 3.11159 6.57439 3.11471 7.00001C3.11407 7.86378 3.45455 8.69285 4.06208 9.30686C4.35966 9.60806 4.71426 9.84696 5.10518 10.0096C5.4961 10.1723 5.91551 10.2554 6.33892 10.2542C6.97403 10.2409 7.59155 10.0431 8.11615 9.68482C8.64075 9.32657 9.04977 8.82342 9.29332 8.23671C9.53688 7.65 9.60444 7.0051 9.48778 6.38065C9.37111 5.75621 9.07525 5.1792 8.63629 4.72001ZM6.33261 9.14107C5.90792 9.14702 5.49106 9.02652 5.13504 8.79491C4.77902 8.56329 4.49993 8.23102 4.33327 7.84036C4.16661 7.44969 4.11991 7.01829 4.1991 6.60101C4.27829 6.18373 4.47981 5.79943 4.77801 5.49699C5.07621 5.19455 5.45763 4.98763 5.87375 4.90256C6.28987 4.81749 6.72189 4.8581 7.11487 5.01923C7.50785 5.18036 7.84402 5.45473 8.08064 5.80745C8.31725 6.16016 8.44362 6.57528 8.44366 7.00001C8.44574 7.27924 8.39277 7.55614 8.28779 7.81489C8.1828 8.07364 8.02786 8.30916 7.83181 8.508C7.63576 8.70683 7.40244 8.86509 7.1452 8.97371C6.88796 9.08234 6.61184 9.13921 6.33261 9.14107Z" fill="white"/>
<path d="M10.5052 3.58641C10.5061 3.68775 10.4869 3.78827 10.4488 3.8822C10.4108 3.97614 10.3545 4.06164 10.2834 4.13382C10.2122 4.206 10.1276 4.26343 10.0342 4.30284C9.9408 4.34225 9.84056 4.36285 9.73921 4.36347C9.63871 4.36342 9.53922 4.34344 9.4465 4.30467C9.35378 4.2659 9.26968 4.20912 9.19906 4.13761C9.09206 4.02905 9.01928 3.89147 8.98974 3.74194C8.9602 3.5924 8.9752 3.43748 9.03288 3.29639C9.09056 3.15529 9.18839 3.03423 9.31423 2.94822C9.44007 2.8622 9.58838 2.81501 9.74079 2.8125C9.91917 2.81247 10.0919 2.87507 10.2288 2.98939L10.2446 3.00519C10.2701 3.02592 10.2934 3.04921 10.3141 3.07468L10.3315 3.09363C10.4445 3.23291 10.5059 3.40702 10.5052 3.58641Z" fill="white"/>
</svg>
