<svg width="16" height="13" viewBox="0 0 16 13" fill="none" xmlns="http://www.w3.org/2000/svg">
<path d="M15.314 2.09327C14.7624 2.33599 14.1789 2.49724 13.5815 2.57203C14.2112 2.19583 14.6819 1.59982 14.9043 0.89711C14.315 1.24956 13.6701 1.49778 12.9976 1.63101C12.5855 1.18699 12.0503 0.878187 11.4617 0.744758C10.873 0.611329 10.2582 0.659453 9.69704 0.882872C9.13591 1.10629 8.65449 1.49466 8.31541 1.99747C7.97632 2.50029 7.79527 3.09427 7.79578 3.70216C7.79366 3.93419 7.81715 4.16574 7.86579 4.39254C6.66958 4.33334 5.49921 4.02056 4.43114 3.47463C3.36307 2.92869 2.42133 2.16188 1.66742 1.22429C1.27991 1.89127 1.15985 2.68218 1.33179 3.43537C1.50373 4.18855 1.95469 4.84714 2.59248 5.27653C2.11643 5.2636 1.65046 5.13542 1.23394 4.90282V4.93584C1.23528 5.63497 1.47546 6.31231 1.91412 6.85403C2.35278 7.39574 2.96316 7.7688 3.64268 7.91048C3.38552 7.97855 3.12053 8.01186 2.85466 8.00954C2.66322 8.0131 2.47195 7.99599 2.28413 7.95851C2.47881 8.55977 2.8536 9.0855 3.35697 9.46337C3.86033 9.84125 4.46754 10.0527 5.09507 10.0687C4.03166 10.9061 2.7207 11.361 1.37098 11.3609C1.13049 11.363 0.890132 11.3489 0.651489 11.3189C2.02772 12.2128 3.63189 12.6852 5.26936 12.6786C10.8034 12.6786 13.8288 8.06057 13.8288 4.05786C13.8288 3.92428 13.8288 3.79521 13.8184 3.66614C14.4076 3.23771 14.9144 2.70472 15.314 2.09327Z" fill="white"/>
</svg>
