<svg width="10" height="7" viewBox="0 0 10 7" fill="none" xmlns="http://www.w3.org/2000/svg">
<path d="M7.99691 0H2.10497C1.86951 -5.13806e-08 1.63636 0.0463533 1.41884 0.136411C1.20132 0.226468 1.00369 0.358465 0.837255 0.524858C0.670816 0.691251 0.538827 0.888779 0.448829 1.10616C0.358831 1.32353 0.312589 1.55649 0.312745 1.79173V4.97519C0.312589 5.21043 0.358831 5.44339 0.448829 5.66077C0.538827 5.87815 0.670816 6.07567 0.837255 6.24207C1.00369 6.40846 1.20132 6.54046 1.41884 6.63052C1.63636 6.72057 1.86951 6.76693 2.10497 6.76693H7.99691C8.23237 6.76693 8.46552 6.72057 8.68304 6.63052C8.90056 6.54046 9.09818 6.40846 9.26462 6.24207C9.43106 6.07567 9.56305 5.87815 9.65305 5.66077C9.74305 5.44339 9.78929 5.21043 9.78913 4.97519V1.79173C9.78929 1.55649 9.74305 1.32353 9.65305 1.10616C9.56305 0.888779 9.43106 0.691251 9.26462 0.524858C9.09818 0.358465 8.90056 0.226468 8.68304 0.136411C8.46552 0.0463533 8.23237 -5.13806e-08 7.99691 0ZM3.80242 4.83436V1.93256L6.29945 3.38346L3.80242 4.83436Z" fill="white"/>
</svg>
